<mxfile host="65bd71144e">
    <diagram name="Page-1" id="fvQtXUmDd7DafEieg3D4">
        <mxGraphModel dx="1318" dy="687" grid="1" gridSize="10" guides="1" tooltips="1" connect="1" arrows="1" fold="1" page="1" pageScale="1" pageWidth="850" pageHeight="1100" math="1" shadow="0">
            <root>
                <mxCell id="0"/>
                <mxCell id="1" parent="0"/>
                <mxCell id="kOvKJkc2oBEsSCxzhFcZ-37" value="" style="group;rounded=1;" parent="1" vertex="1" connectable="0">
                    <mxGeometry x="50" y="90" width="220" height="220" as="geometry"/>
                </mxCell>
                <mxCell id="kOvKJkc2oBEsSCxzhFcZ-10" value="" style="shape=orEllipse;perimeter=ellipsePerimeter;whiteSpace=wrap;html=1;backgroundOutline=1;dashed=1;fontSize=5;rounded=1;" parent="kOvKJkc2oBEsSCxzhFcZ-37" vertex="1">
                    <mxGeometry x="70" y="70" width="80" height="80" as="geometry"/>
                </mxCell>
                <mxCell id="kOvKJkc2oBEsSCxzhFcZ-14" value="&lt;div style=&quot;font-size: 5px;&quot;&gt;RIGHT&lt;/div&gt;" style="edgeStyle=orthogonalEdgeStyle;rounded=1;orthogonalLoop=1;jettySize=auto;html=1;exitX=1;exitY=0.5;exitDx=0;exitDy=0;fontSize=5;" parent="kOvKJkc2oBEsSCxzhFcZ-37" source="kOvKJkc2oBEsSCxzhFcZ-11" edge="1">
                    <mxGeometry relative="1" as="geometry">
                        <mxPoint x="220" y="110" as="targetPoint"/>
                    </mxGeometry>
                </mxCell>
                <mxCell id="kOvKJkc2oBEsSCxzhFcZ-15" value="&lt;font style=&quot;font-size: 5px;&quot;&gt;FORWARD&lt;/font&gt;" style="edgeStyle=orthogonalEdgeStyle;rounded=1;orthogonalLoop=1;jettySize=auto;html=1;exitX=0.5;exitY=0;exitDx=0;exitDy=0;fontStyle=0;fontSize=5;" parent="kOvKJkc2oBEsSCxzhFcZ-37" source="kOvKJkc2oBEsSCxzhFcZ-11" edge="1">
                    <mxGeometry relative="1" as="geometry">
                        <mxPoint x="110" as="targetPoint"/>
                    </mxGeometry>
                </mxCell>
                <mxCell id="kOvKJkc2oBEsSCxzhFcZ-16" value="&lt;div style=&quot;font-size: 5px;&quot;&gt;LEFT&lt;/div&gt;" style="edgeStyle=orthogonalEdgeStyle;rounded=1;orthogonalLoop=1;jettySize=auto;html=1;exitX=0;exitY=0.5;exitDx=0;exitDy=0;fontSize=5;" parent="kOvKJkc2oBEsSCxzhFcZ-37" source="kOvKJkc2oBEsSCxzhFcZ-11" edge="1">
                    <mxGeometry relative="1" as="geometry">
                        <mxPoint y="110" as="targetPoint"/>
                    </mxGeometry>
                </mxCell>
                <mxCell id="kOvKJkc2oBEsSCxzhFcZ-17" value="BACKWARD" style="edgeStyle=orthogonalEdgeStyle;rounded=1;orthogonalLoop=1;jettySize=auto;html=1;exitX=0.5;exitY=1;exitDx=0;exitDy=0;fontSize=5;" parent="kOvKJkc2oBEsSCxzhFcZ-37" source="kOvKJkc2oBEsSCxzhFcZ-11" edge="1">
                    <mxGeometry relative="1" as="geometry">
                        <mxPoint x="110" y="220" as="targetPoint"/>
                    </mxGeometry>
                </mxCell>
                <mxCell id="kOvKJkc2oBEsSCxzhFcZ-28" value="DIAG_45" style="rounded=1;orthogonalLoop=1;jettySize=auto;html=1;exitX=1;exitY=0;exitDx=0;exitDy=0;fontSize=5;" parent="kOvKJkc2oBEsSCxzhFcZ-37" source="kOvKJkc2oBEsSCxzhFcZ-11" edge="1">
                    <mxGeometry relative="1" as="geometry">
                        <mxPoint x="190" y="30" as="targetPoint"/>
                    </mxGeometry>
                </mxCell>
                <mxCell id="kOvKJkc2oBEsSCxzhFcZ-31" value="&lt;div style=&quot;font-size: 5px;&quot;&gt;&lt;font style=&quot;font-size: 5px;&quot;&gt;DIAG_225&lt;/font&gt;&lt;/div&gt;" style="rounded=1;orthogonalLoop=1;jettySize=auto;html=1;exitX=0;exitY=1;exitDx=0;exitDy=0;fontSize=5;" parent="kOvKJkc2oBEsSCxzhFcZ-37" source="kOvKJkc2oBEsSCxzhFcZ-11" edge="1">
                    <mxGeometry relative="1" as="geometry">
                        <mxPoint x="30" y="190" as="targetPoint"/>
                    </mxGeometry>
                </mxCell>
                <mxCell id="kOvKJkc2oBEsSCxzhFcZ-32" value="DIAG_135" style="rounded=1;orthogonalLoop=1;jettySize=auto;html=1;exitX=0;exitY=0;exitDx=0;exitDy=0;fontSize=5;" parent="kOvKJkc2oBEsSCxzhFcZ-37" source="kOvKJkc2oBEsSCxzhFcZ-11" edge="1">
                    <mxGeometry relative="1" as="geometry">
                        <mxPoint x="30" y="30" as="targetPoint"/>
                    </mxGeometry>
                </mxCell>
                <mxCell id="kOvKJkc2oBEsSCxzhFcZ-11" value="" style="shape=sumEllipse;perimeter=ellipsePerimeter;whiteSpace=wrap;html=1;backgroundOutline=1;fillColor=none;dashed=1;fontSize=5;rounded=1;" parent="kOvKJkc2oBEsSCxzhFcZ-37" vertex="1">
                    <mxGeometry x="70" y="70" width="80" height="80" as="geometry"/>
                </mxCell>
                <mxCell id="kOvKJkc2oBEsSCxzhFcZ-19" value="&lt;font style=&quot;font-size: 5px;&quot;&gt;DIAG_325&lt;/font&gt;" style="endArrow=classic;html=1;rounded=1;fontSize=5;" parent="kOvKJkc2oBEsSCxzhFcZ-37" edge="1">
                    <mxGeometry relative="1" as="geometry">
                        <mxPoint x="140" y="140" as="sourcePoint"/>
                        <mxPoint x="190" y="190" as="targetPoint"/>
                    </mxGeometry>
                </mxCell>
                <mxCell id="kOvKJkc2oBEsSCxzhFcZ-22" value="" style="shape=image;html=1;verticalAlign=top;verticalLabelPosition=bottom;labelBackgroundColor=#ffffff;imageAspect=0;aspect=fixed;image=https://cdn1.iconfinder.com/data/icons/bootstrap-vol-3/16/joystick-128.png;fontSize=5;rounded=1;" parent="kOvKJkc2oBEsSCxzhFcZ-37" vertex="1">
                    <mxGeometry x="95" y="95" width="30" height="30" as="geometry"/>
                </mxCell>
                <mxCell id="kOvKJkc2oBEsSCxzhFcZ-38" value="" style="group;rounded=1;" parent="1" vertex="1" connectable="0">
                    <mxGeometry x="370" y="90" width="220" height="220" as="geometry"/>
                </mxCell>
                <mxCell id="kOvKJkc2oBEsSCxzhFcZ-39" value="" style="shape=orEllipse;perimeter=ellipsePerimeter;whiteSpace=wrap;html=1;backgroundOutline=1;dashed=1;fontSize=5;rounded=1;" parent="kOvKJkc2oBEsSCxzhFcZ-38" vertex="1">
                    <mxGeometry x="70" y="70" width="80" height="80" as="geometry"/>
                </mxCell>
                <mxCell id="kOvKJkc2oBEsSCxzhFcZ-40" value="&lt;div style=&quot;font-size: 5px;&quot;&gt;RIGHT&lt;/div&gt;" style="edgeStyle=orthogonalEdgeStyle;rounded=1;orthogonalLoop=1;jettySize=auto;html=1;exitX=1;exitY=0.5;exitDx=0;exitDy=0;fontSize=5;" parent="kOvKJkc2oBEsSCxzhFcZ-38" source="kOvKJkc2oBEsSCxzhFcZ-47" edge="1">
                    <mxGeometry relative="1" as="geometry">
                        <mxPoint x="220" y="110" as="targetPoint"/>
                    </mxGeometry>
                </mxCell>
                <mxCell id="kOvKJkc2oBEsSCxzhFcZ-41" value="&lt;font style=&quot;font-size: 5px;&quot;&gt;FORWARD&lt;/font&gt;" style="edgeStyle=orthogonalEdgeStyle;rounded=1;orthogonalLoop=1;jettySize=auto;html=1;exitX=0.5;exitY=0;exitDx=0;exitDy=0;fontStyle=0;fontSize=5;" parent="kOvKJkc2oBEsSCxzhFcZ-38" source="kOvKJkc2oBEsSCxzhFcZ-47" edge="1">
                    <mxGeometry relative="1" as="geometry">
                        <mxPoint x="110" as="targetPoint"/>
                    </mxGeometry>
                </mxCell>
                <mxCell id="kOvKJkc2oBEsSCxzhFcZ-42" value="&lt;div style=&quot;font-size: 5px;&quot;&gt;LEFT&lt;/div&gt;" style="edgeStyle=orthogonalEdgeStyle;rounded=1;orthogonalLoop=1;jettySize=auto;html=1;exitX=0;exitY=0.5;exitDx=0;exitDy=0;fontSize=5;" parent="kOvKJkc2oBEsSCxzhFcZ-38" source="kOvKJkc2oBEsSCxzhFcZ-47" edge="1">
                    <mxGeometry relative="1" as="geometry">
                        <mxPoint y="110" as="targetPoint"/>
                    </mxGeometry>
                </mxCell>
                <mxCell id="kOvKJkc2oBEsSCxzhFcZ-43" value="BACKWARD" style="edgeStyle=orthogonalEdgeStyle;rounded=1;orthogonalLoop=1;jettySize=auto;html=1;exitX=0.5;exitY=1;exitDx=0;exitDy=0;fontSize=5;" parent="kOvKJkc2oBEsSCxzhFcZ-38" source="kOvKJkc2oBEsSCxzhFcZ-47" edge="1">
                    <mxGeometry relative="1" as="geometry">
                        <mxPoint x="110" y="220" as="targetPoint"/>
                    </mxGeometry>
                </mxCell>
                <mxCell id="kOvKJkc2oBEsSCxzhFcZ-44" value="DIAG_45" style="rounded=1;orthogonalLoop=1;jettySize=auto;html=1;exitX=1;exitY=0;exitDx=0;exitDy=0;fontSize=5;" parent="kOvKJkc2oBEsSCxzhFcZ-38" source="kOvKJkc2oBEsSCxzhFcZ-47" edge="1">
                    <mxGeometry relative="1" as="geometry">
                        <mxPoint x="190" y="30" as="targetPoint"/>
                    </mxGeometry>
                </mxCell>
                <mxCell id="kOvKJkc2oBEsSCxzhFcZ-45" value="&lt;div style=&quot;font-size: 5px;&quot;&gt;&lt;font style=&quot;font-size: 5px;&quot;&gt;DIAG_225&lt;/font&gt;&lt;/div&gt;" style="rounded=1;orthogonalLoop=1;jettySize=auto;html=1;exitX=0;exitY=1;exitDx=0;exitDy=0;fontSize=5;" parent="kOvKJkc2oBEsSCxzhFcZ-38" source="kOvKJkc2oBEsSCxzhFcZ-47" edge="1">
                    <mxGeometry relative="1" as="geometry">
                        <mxPoint x="30" y="190" as="targetPoint"/>
                    </mxGeometry>
                </mxCell>
                <mxCell id="kOvKJkc2oBEsSCxzhFcZ-46" value="DIAG_135" style="rounded=1;orthogonalLoop=1;jettySize=auto;html=1;exitX=0;exitY=0;exitDx=0;exitDy=0;fontSize=5;" parent="kOvKJkc2oBEsSCxzhFcZ-38" source="kOvKJkc2oBEsSCxzhFcZ-47" edge="1">
                    <mxGeometry relative="1" as="geometry">
                        <mxPoint x="30" y="30" as="targetPoint"/>
                    </mxGeometry>
                </mxCell>
                <mxCell id="kOvKJkc2oBEsSCxzhFcZ-47" value="" style="shape=sumEllipse;perimeter=ellipsePerimeter;whiteSpace=wrap;html=1;backgroundOutline=1;fillColor=none;dashed=1;fontSize=5;rounded=1;gradientColor=none;gradientDirection=radial;fillStyle=solid;" parent="kOvKJkc2oBEsSCxzhFcZ-38" vertex="1">
                    <mxGeometry x="70" y="70" width="80" height="80" as="geometry"/>
                </mxCell>
                <mxCell id="kOvKJkc2oBEsSCxzhFcZ-48" value="&lt;font style=&quot;font-size: 5px;&quot;&gt;DIAG_325&lt;/font&gt;" style="endArrow=classic;html=1;rounded=1;fontSize=5;" parent="kOvKJkc2oBEsSCxzhFcZ-38" edge="1">
                    <mxGeometry relative="1" as="geometry">
                        <mxPoint x="140" y="140" as="sourcePoint"/>
                        <mxPoint x="190" y="190" as="targetPoint"/>
                    </mxGeometry>
                </mxCell>
                <mxCell id="kOvKJkc2oBEsSCxzhFcZ-49" value="" style="shape=image;html=1;verticalAlign=top;verticalLabelPosition=bottom;labelBackgroundColor=#ffffff;imageAspect=0;aspect=fixed;image=https://cdn1.iconfinder.com/data/icons/bootstrap-vol-3/16/joystick-128.png;fontSize=5;rounded=1;" parent="kOvKJkc2oBEsSCxzhFcZ-38" vertex="1">
                    <mxGeometry x="95" y="95" width="30" height="30" as="geometry"/>
                </mxCell>
                <mxCell id="18" value="x+" style="endArrow=classic;startArrow=classic;html=1;rounded=1;" parent="1" edge="1">
                    <mxGeometry x="0.5625" width="50" height="50" relative="1" as="geometry">
                        <mxPoint x="160" y="520" as="sourcePoint"/>
                        <mxPoint x="480" y="520" as="targetPoint"/>
                        <mxPoint as="offset"/>
                    </mxGeometry>
                </mxCell>
                <mxCell id="19" value="y+" style="endArrow=classic;startArrow=classic;html=1;rounded=1;" parent="1" edge="1">
                    <mxGeometry x="-0.5" width="50" height="50" relative="1" as="geometry">
                        <mxPoint x="320" y="680" as="sourcePoint"/>
                        <mxPoint x="320" y="360" as="targetPoint"/>
                        <mxPoint as="offset"/>
                    </mxGeometry>
                </mxCell>
                <mxCell id="20" value="+ve" style="endArrow=classic;html=1;rounded=1;" parent="1" edge="1">
                    <mxGeometry width="50" height="50" relative="1" as="geometry">
                        <mxPoint x="320" y="520" as="sourcePoint"/>
                        <mxPoint x="440" y="640" as="targetPoint"/>
                    </mxGeometry>
                </mxCell>
                <mxCell id="21" value="" style="verticalLabelPosition=bottom;verticalAlign=top;html=1;shape=mxgraph.basic.arc;startAngle=0.25;endAngle=0.3772734873935795;rounded=1;fillStyle=solid;fillColor=none;gradientColor=none;gradientDirection=radial;" parent="1" vertex="1">
                    <mxGeometry x="270" y="470" width="100" height="100" as="geometry"/>
                </mxCell>
                <mxCell id="22" value="&lt;div style=&quot;color: rgb(201, 209, 217); background-color: rgb(13, 17, 23); font-family: Menlo, Monaco, &amp;quot;Courier New&amp;quot;, monospace; font-weight: normal; font-size: 12px; line-height: 18px;&quot;&gt;&lt;br&gt;&lt;div&gt;&lt;span style=&quot;color: #ec8e2c;&quot;&gt;float&lt;/span&gt;&lt;span style=&quot;color: #c9d1d9;&quot;&gt; &lt;/span&gt;&lt;span style=&quot;color: #d2a8ff;&quot;&gt;calculateAngle&lt;/span&gt;&lt;span style=&quot;color: #c9d1d9;&quot;&gt;(&lt;/span&gt;&lt;span style=&quot;color: #ec8e2c;&quot;&gt;int&lt;/span&gt;&lt;span style=&quot;color: #c9d1d9;&quot;&gt; &lt;/span&gt;&lt;span style=&quot;color: #fdac54;&quot;&gt;x&lt;/span&gt;&lt;span style=&quot;color: #c9d1d9;&quot;&gt;, &lt;/span&gt;&lt;span style=&quot;color: #ec8e2c;&quot;&gt;int&lt;/span&gt;&lt;span style=&quot;color: #c9d1d9;&quot;&gt; &lt;/span&gt;&lt;span style=&quot;color: #fdac54;&quot;&gt;y&lt;/span&gt;&lt;span style=&quot;color: #c9d1d9;&quot;&gt;) {&lt;/span&gt;&lt;/div&gt;&lt;div&gt;&lt;span style=&quot;color: #c9d1d9;&quot;&gt;  &lt;/span&gt;&lt;span style=&quot;color: #ec8e2c;&quot;&gt;float&lt;/span&gt;&lt;span style=&quot;color: #c9d1d9;&quot;&gt; &lt;/span&gt;&lt;span style=&quot;color: #c9d1d9;&quot;&gt;angle&lt;/span&gt;&lt;span style=&quot;color: #c9d1d9;&quot;&gt; &lt;/span&gt;&lt;span style=&quot;color: #ec8e2c;&quot;&gt;=&lt;/span&gt;&lt;span style=&quot;color: #c9d1d9;&quot;&gt; &lt;/span&gt;&lt;span style=&quot;color: #d2a8ff;&quot;&gt;atan2&lt;/span&gt;&lt;span style=&quot;color: #c9d1d9;&quot;&gt;(&lt;/span&gt;&lt;span style=&quot;color: #ec8e2c;&quot;&gt;-&lt;/span&gt;&lt;span style=&quot;color: #fdac54;&quot;&gt;y&lt;/span&gt;&lt;span style=&quot;color: #c9d1d9;&quot;&gt;, &lt;/span&gt;&lt;span style=&quot;color: #fdac54;&quot;&gt;x&lt;/span&gt;&lt;span style=&quot;color: #c9d1d9;&quot;&gt;) &lt;/span&gt;&lt;span style=&quot;color: #ec8e2c;&quot;&gt;*&lt;/span&gt;&lt;span style=&quot;color: #c9d1d9;&quot;&gt; &lt;/span&gt;&lt;span style=&quot;color: #79c0ff;&quot;&gt;180&lt;/span&gt;&lt;span style=&quot;color: #c9d1d9;&quot;&gt; &lt;/span&gt;&lt;span style=&quot;color: #ec8e2c;&quot;&gt;/&lt;/span&gt;&lt;span style=&quot;color: #c9d1d9;&quot;&gt; &lt;/span&gt;&lt;span style=&quot;color: #d2a8ff;&quot;&gt;PI&lt;/span&gt;&lt;span style=&quot;color: #c9d1d9;&quot;&gt;;&lt;/span&gt;&lt;/div&gt;&lt;div&gt;&lt;span style=&quot;color: #c9d1d9;&quot;&gt;  &lt;/span&gt;&lt;span style=&quot;color: #ec8e2c;&quot;&gt;if&lt;/span&gt;&lt;span style=&quot;color: #c9d1d9;&quot;&gt; (&lt;/span&gt;&lt;span style=&quot;color: #c9d1d9;&quot;&gt;angle&lt;/span&gt;&lt;span style=&quot;color: #c9d1d9;&quot;&gt; &lt;/span&gt;&lt;span style=&quot;color: #ec8e2c;&quot;&gt;&amp;lt;&lt;/span&gt;&lt;span style=&quot;color: #c9d1d9;&quot;&gt; &lt;/span&gt;&lt;span style=&quot;color: #79c0ff;&quot;&gt;0&lt;/span&gt;&lt;span style=&quot;color: #c9d1d9;&quot;&gt;) {&lt;/span&gt;&lt;/div&gt;&lt;div&gt;&lt;span style=&quot;color: #c9d1d9;&quot;&gt;&amp;nbsp; angle&lt;/span&gt;&lt;span style=&quot;color: #c9d1d9;&quot;&gt; &lt;/span&gt;&lt;span style=&quot;color: #ec8e2c;&quot;&gt;+=&lt;/span&gt;&lt;span style=&quot;color: #c9d1d9;&quot;&gt; &lt;/span&gt;&lt;span style=&quot;color: #79c0ff;&quot;&gt;360&lt;/span&gt;&lt;span style=&quot;color: #c9d1d9;&quot;&gt;;&lt;/span&gt;&lt;/div&gt;&lt;div&gt;&lt;span style=&quot;color: #c9d1d9;&quot;&gt;  }&lt;/span&gt;&lt;/div&gt;&lt;div&gt;&lt;span style=&quot;color: #c9d1d9;&quot;&gt;  &lt;/span&gt;&lt;span style=&quot;color: #ec8e2c;&quot;&gt;return&lt;/span&gt;&lt;span style=&quot;color: #c9d1d9;&quot;&gt; &lt;/span&gt;&lt;span style=&quot;color: #c9d1d9;&quot;&gt;angle&lt;/span&gt;&lt;span style=&quot;color: #c9d1d9;&quot;&gt;;&lt;/span&gt;&lt;/div&gt;&lt;div&gt;&lt;span style=&quot;color: #c9d1d9;&quot;&gt;}&lt;/span&gt;&lt;/div&gt;&lt;br&gt;&lt;/div&gt;" style="text;whiteSpace=wrap;html=1;" vertex="1" parent="1">
                    <mxGeometry x="180" y="680" width="280" height="160" as="geometry"/>
                </mxCell>
                <mxCell id="23" value="&lt;p style=&quot;caret-color: rgb(0, 0, 0); color: rgb(0, 0, 0); font-style: normal; font-variant-caps: normal; font-weight: 400; letter-spacing: normal; text-align: start; text-indent: 0px; text-transform: none; word-spacing: 0px; -webkit-text-stroke-width: 0px; text-decoration: none;&quot;&gt;&lt;span style=&quot;background-color: rgb(194, 194, 194);&quot;&gt;Here's a breakdown of the code:&lt;/span&gt;&lt;/p&gt;&lt;ol style=&quot;caret-color: rgb(0, 0, 0); color: rgb(0, 0, 0); font-style: normal; font-variant-caps: normal; font-weight: 400; letter-spacing: normal; text-align: start; text-indent: 0px; text-transform: none; word-spacing: 0px; -webkit-text-stroke-width: 0px; text-decoration: none;&quot;&gt;&lt;li&gt;&lt;p&gt;&lt;span style=&quot;background-color: rgb(194, 194, 194);&quot;&gt;&lt;strong&gt;&lt;code&gt;atan2(-y, x)&lt;/code&gt;&lt;/strong&gt;: This function computes the angle in radians between the positive x-axis and the point (x, -y). The&lt;span class=&quot;Apple-converted-space&quot;&gt;&amp;nbsp;&lt;/span&gt;&lt;code&gt;atan2&lt;/code&gt;&lt;span class=&quot;Apple-converted-space&quot;&gt;&amp;nbsp;&lt;/span&gt;function handles the signs of the inputs to return the correct quadrant of the angle. This function is useful because it can distinguish between all four quadrants, unlike&lt;span class=&quot;Apple-converted-space&quot;&gt;&amp;nbsp;&lt;/span&gt;&lt;code&gt;atan&lt;/code&gt;.&lt;/span&gt;&lt;/p&gt;&lt;/li&gt;&lt;li&gt;&lt;p&gt;&lt;span style=&quot;background-color: rgb(194, 194, 194);&quot;&gt;&lt;strong&gt;&lt;code&gt;* 180 / PI&lt;/code&gt;&lt;/strong&gt;: This converts the angle from radians to degrees. The constant&lt;span class=&quot;Apple-converted-space&quot;&gt;&amp;nbsp;&lt;/span&gt;&lt;code&gt;PI&lt;/code&gt;&lt;span class=&quot;Apple-converted-space&quot;&gt;&amp;nbsp;&lt;/span&gt;is the mathematical constant π (approximately 3.14159). Multiplying by 180 and then dividing by π converts the angle from radians to degrees.&lt;/span&gt;&lt;/p&gt;&lt;/li&gt;&lt;/ol&gt;&lt;p style=&quot;caret-color: rgb(0, 0, 0); color: rgb(0, 0, 0); font-style: normal; font-variant-caps: normal; font-weight: 400; letter-spacing: normal; text-align: start; text-indent: 0px; text-transform: none; word-spacing: 0px; -webkit-text-stroke-width: 0px; text-decoration: none;&quot;&gt;&lt;span style=&quot;background-color: rgb(194, 194, 194);&quot;&gt;So, the full expression calculates the angle in degrees between the positive x-axis and the point (x, -y).&lt;/span&gt;&lt;/p&gt;" style="text;whiteSpace=wrap;html=1;" vertex="1" parent="1">
                    <mxGeometry x="520" y="560" width="560" height="280" as="geometry"/>
                </mxCell>
            </root>
        </mxGraphModel>
    </diagram>
</mxfile>